<?xml version="1.0" encoding="UTF-8" standalone="no"?>
<svg
   xmlns:dc="http://purl.org/dc/elements/1.1/"
   xmlns:cc="http://creativecommons.org/ns#"
   xmlns:rdf="http://www.w3.org/1999/02/22-rdf-syntax-ns#"
   xmlns:svg="http://www.w3.org/2000/svg"
   xmlns="http://www.w3.org/2000/svg"
   xmlns:sodipodi="http://sodipodi.sourceforge.net/DTD/sodipodi-0.dtd"
   xmlns:inkscape="http://www.inkscape.org/namespaces/inkscape"
   width="48px"
   height="48px"
   id="svg2998"
   version="1.1">
  <defs
     id="defs3000" />
  <g id="layer1">
    <path
       style="fill:#000000;fill-opacity:1;stroke:none"
       d="m 7.3539846,50.857258 c -2.6279614,-1.858148 -2.45455,-3.17612 -2.45455,-12.36515 0,-8.51208 -0.29247,-10.2824 -2.07258,-12.54545 l -2.07258003,-2.63486 2.07258003,-2.63486 c 1.76401,-2.24257 2.07258,-4.03897 2.07258,-12.0657401 0,-10.0066601 0.74268,-12.5561301 4.19606,-14.4043302 l 2.1502304,-1.1507699 -2.1731404,2.7627099 c -1.89269,2.4061601 -2.17315,4.01848006 -2.17315,12.4929902 0,8.3296701 -0.29834,10.1095501 -2.07258,12.3651401 l -2.07258,2.63486 2.07258,2.63486 c 1.77424,2.25559 2.07258,4.03547 2.07258,12.36514 0,8.32967 0.29834,10.10955 2.07258,12.36514 2.6093504,3.31725 2.7710974,3.283733 -1.61803,0.18032 z"
       id="path2985"/>
  </g>
</svg>
